simulation
nRows=38
nColumns=15
endheader
time  TH_x TH_y TH_z SC_y  SC_z  SC_x  AC_y  AC_z  AC_x  GH_y  GH_z  GH_yy  EL_x  PS_y
2.000000  0.000000  0.000000  0.000000  -35.367659  2.615503  6.276516  43.370519  18.099297  -0.109186  -2.243765  35.944324  -1.435212  23.081222  0.000000
2.010000  0.000000  0.000000  0.000000  -35.319999  2.531047  6.093393  43.424659  17.837252  -0.134758  -2.403267  35.530886  -1.316455  23.111932  0.000000
2.020000  0.000000  0.000000  0.000000  -35.271801  2.446172  5.909887  43.479532  17.573163  -0.161467  -2.563536  35.114486  -1.194250  23.142471  0.000000
2.030000  0.000000  0.000000  0.000000  -35.223076  2.360923  5.726097  43.535114  17.307163  -0.189317  -2.724483  34.695230  -1.068581  23.172818  0.000000
2.040000  0.000000  0.000000  0.000000  -35.173838  2.275343  5.542120  43.591380  17.039386  -0.218310  -2.886020  34.273226  -0.939431  23.202954  0.000000
2.050000  0.000000  0.000000  0.000000  -35.124098  2.189477  5.358058  43.648305  16.769972  -0.248450  -3.048056  33.848583  -0.806784  23.232858  0.000000
2.060000  0.000000  0.000000  0.000000  -35.073869  2.103369  5.174012  43.705862  16.499061  -0.279738  -3.210499  33.421410  -0.670625  23.262509  0.000000
2.070000  0.000000  0.000000  0.000000  -35.023165  2.017066  4.990084  43.764026  16.226795  -0.312179  -3.373254  32.991818  -0.530936  23.291886  0.000000
2.080000  0.000000  0.000000  0.000000  -34.971998  1.930613  4.806381  43.822770  15.953319  -0.345773  -3.536227  32.559921  -0.387702  23.320967  0.000000
2.090000  0.000000  0.000000  0.000000  -34.920382  1.844059  4.623006  43.882066  15.678780  -0.380523  -3.699320  32.125830  -0.240905  23.349730  0.000000
2.100000  0.000000  0.000000  0.000000  -34.868331  1.757451  4.440069  43.941885  15.403328  -0.416431  -3.862437  31.689661  -0.090529  23.378155  0.000000
2.110000  0.000000  0.000000  0.000000  -34.815859  1.670838  4.257677  44.002201  15.127116  -0.453500  -4.025475  31.251530  0.063442  23.406219  0.000000
2.120000  0.000000  0.000000  0.000000  -34.762979  1.584270  4.075941  44.062983  14.850297  -0.491730  -4.188336  30.811554  0.221025  23.433899  0.000000
2.130000  0.000000  0.000000  0.000000  -34.709707  1.497795  3.894973  44.124203  14.573029  -0.531124  -4.350915  30.369850  0.382237  23.461173  0.000000
2.140000  0.000000  0.000000  0.000000  -34.656056  1.411465  3.714886  44.185830  14.295469  -0.571683  -4.513108  29.926538  0.547095  23.488018  0.000000
2.150000  0.000000  0.000000  0.000000  -34.602042  1.325331  3.535794  44.247834  14.017781  -0.613408  -4.674810  29.481738  0.715616  23.514412  0.000000
2.160000  0.000000  0.000000  0.000000  -34.547679  1.239445  3.357813  44.310183  13.740126  -0.656300  -4.835914  29.035573  0.887816  23.540330  0.000000
2.170000  0.000000  0.000000  0.000000  -34.492982  1.153860  3.181062  44.372846  13.462672  -0.700360  -4.996309  28.588166  1.063712  23.565749  0.000000
2.180000  0.000000  0.000000  0.000000  -34.437968  1.068629  3.005658  44.435792  13.185587  -0.745590  -5.155888  28.139639  1.243323  23.590646  0.000000
2.190000  0.000000  0.000000  0.000000  -34.382651  0.983807  2.831722  44.498987  12.909041  -0.791990  -5.314536  27.690120  1.426663  23.614997  0.000000
2.200000  0.000000  0.000000  0.000000  -34.327048  0.899448  2.659375  44.562398  12.633207  -0.839560  -5.472142  27.239733  1.613752  23.638777  0.000000
2.210000  0.000000  0.000000  0.000000  -34.271175  0.815607  2.488742  44.625991  12.358262  -0.888300  -5.628590  26.788608  1.804606  23.661962  0.000000
2.220000  0.000000  0.000000  0.000000  -34.215047  0.732341  2.319946  44.689734  12.084382  -0.938212  -5.783763  26.336872  1.999242  23.684527  0.000000
2.230000  0.000000  0.000000  0.000000  -34.158682  0.649707  2.153113  44.753590  11.811748  -0.989295  -5.937545  25.884656  2.197679  23.706446  0.000000
2.240000  0.000000  0.000000  0.000000  -34.102097  0.567761  1.988372  44.817524  11.540542  -1.041548  -6.089816  25.432090  2.399932  23.727696  0.000000
2.250000  0.000000  0.000000  0.000000  -34.045308  0.486563  1.825850  44.881502  11.270949  -1.094973  -6.240455  24.979308  2.606020  23.748251  0.000000
2.260000  0.000000  0.000000  0.000000  -33.988332  0.406172  1.665679  44.945486  11.003156  -1.149568  -6.389339  24.526443  2.815960  23.768084  0.000000
2.270000  0.000000  0.000000  0.000000  -33.931188  0.326645  1.507989  45.009440  10.737352  -1.205332  -6.536346  24.073630  3.029771  23.787170  0.000000
2.280000  0.000000  0.000000  0.000000  -33.873892  0.248045  1.352915  45.073326  10.473730  -1.262266  -6.681348  23.621005  3.247468  23.805483  0.000000
2.290000  0.000000  0.000000  0.000000  -33.816462  0.170432  1.200590  45.137107  10.212483  -1.320368  -6.824220  23.168704  3.469071  23.822997  0.000000
2.300000  0.000000  0.000000  0.000000  -33.758917  0.093868  1.051152  45.200745  9.953807  -1.379638  -6.964834  22.716867  3.694597  23.839684  0.000000
2.310000  0.000000  0.000000  0.000000  -33.701275  0.018414  0.904737  45.264200  9.697903  -1.440073  -7.103058  22.265633  3.924064  23.855517  0.000000
2.320000  0.000000  0.000000  0.000000  -33.643555  -0.055866  0.761484  45.327434  9.444970  -1.501674  -7.238763  21.815142  4.157490  23.870471  0.000000
2.330000  0.000000  0.000000  0.000000  -33.585774  -0.128908  0.621534  45.390406  9.195212  -1.564437  -7.371815  21.365536  4.394892  23.884517  0.000000
2.340000  0.000000  0.000000  0.000000  -33.527953  -0.200648  0.485028  45.453076  8.948836  -1.628363  -7.502079  20.916959  4.636290  23.897628  0.000000
2.350000  0.000000  0.000000  0.000000  -33.470110  -0.271022  0.352111  45.515403  8.706048  -1.693448  -7.629421  20.469555  4.881700  23.909776  0.000000
2.360000  0.000000  0.000000  0.000000  -33.412266  -0.339962  0.222925  45.577345  8.467061  -1.759692  -7.753701  20.023470  5.131142  23.920932  0.000000
2.370000  0.000000  0.000000  0.000000  -33.354438  -0.407404  0.097618  45.638862  8.232086  -1.827091  -7.874783  19.578849  5.384633  23.931069  0.000000
